<svg width="17" height="17" viewBox="0 0 17 17" fill="none" xmlns="http://www.w3.org/2000/svg">
<circle cx="8.5" cy="8.5" r="8.5" fill="#8D0E6D" fill-opacity="0.3"/>
<path d="M12.883 7.33899C12.883 9.13888 11.4239 10.598 9.62398 10.598C8.72404 10.598 7.90929 10.2332 7.31953 9.64344C6.72977 9.05368 6.365 8.23893 6.365 7.33899C6.365 5.5391 7.8241 4.08 9.62398 4.08C11.4239 4.08 12.883 5.5391 12.883 7.33899Z" fill="#8D0E6D" fill-opacity="0.3"/>
<path d="M7.31953 9.64344C7.90929 10.2332 8.72404 10.598 9.62398 10.598C11.4239 10.598 12.883 9.13888 12.883 7.33899C12.883 5.5391 11.4239 4.08 9.62398 4.08C7.8241 4.08 6.365 5.5391 6.365 7.33899C6.365 8.23893 6.72977 9.05368 7.31953 9.64344ZM7.31953 9.64344L4.04297 12.92" stroke="#FB3789" stroke-linecap="round"/>
</svg>
